<?xml version="1.0" standalone="no"?>
<!DOCTYPE svg PUBLIC "-//W3C//DTD SVG 20010904//EN"
 "http://www.w3.org/TR/2001/REC-SVG-20010904/DTD/svg10.dtd">
<svg version="1.0" xmlns="http://www.w3.org/2000/svg"
 width="500.000000pt" height="500.000000pt" viewBox="0 0 500.000000 500.000000"
 preserveAspectRatio="xMidYMid meet">
<metadata>
Created by potrace 1.14, written by Peter Selinger 2001-2017
</metadata>
<g transform="translate(0.000000,500.000000) scale(0.100000,-0.100000)"
fill="#000000" stroke="none">
<path d="M2203 4875 c-72 -17 -130 -54 -204 -127 -57 -56 -66 -71 -81 -128 -9
-36 -21 -100 -27 -142 -14 -102 -13 -99 -37 -133 -12 -16 -24 -45 -28 -62 -19
-101 -14 -93 -62 -93 -96 0 -164 -60 -173 -152 -1 -5 -23 -8 -50 -8 -44 0 -87
-20 -111 -51 -3 -3 -28 -8 -57 -11 -29 -3 -60 -11 -69 -18 -9 -8 -34 -13 -59
-11 -52 3 -88 -17 -105 -60 -13 -30 -10 -65 11 -149 6 -25 14 -76 18 -115 6
-64 10 -75 55 -132 27 -35 57 -65 66 -68 13 -4 19 -21 23 -67 5 -57 3 -64 -20
-85 -22 -21 -24 -30 -20 -76 2 -29 10 -70 17 -92 6 -22 14 -54 17 -71 10 -65
82 -116 177 -126 30 -3 32 -6 60 -70 8 -21 22 -38 31 -38 8 0 15 -4 15 -9 0
-6 25 -38 55 -73 47 -54 55 -68 55 -104 0 -56 22 -73 101 -80 52 -5 67 -3 78
10 14 16 47 21 75 10 11 -4 16 -19 16 -44 0 -44 22 -72 48 -63 9 4 34 24 54
44 22 22 41 33 44 27 4 -6 -1 -15 -10 -20 -9 -5 -16 -18 -16 -28 0 -10 -13
-32 -30 -47 -23 -22 -31 -40 -36 -85 -8 -73 2 -140 26 -170 11 -12 24 -28 30
-35 13 -16 14 -15 -18 -51 l-29 -32 -456 0 c-281 0 -466 -4 -482 -10 -62 -24
-60 -10 -60 -393 l0 -349 28 -24 c25 -21 38 -24 108 -24 l79 0 0 -620 0 -620
1250 0 1250 0 0 620 0 620 83 0 c77 0 85 2 108 26 l24 26 0 344 0 344 -28 27
-27 28 -454 3 -454 3 1 48 c2 45 3 48 20 36 27 -19 54 -7 61 26 6 29 -4 55
-34 92 -13 16 -11 21 17 47 29 27 31 32 21 62 -6 18 -13 54 -15 81 -4 34 -11
52 -29 66 -13 10 -24 25 -24 32 1 21 25 49 43 49 16 0 77 55 77 70 0 4 26 11
58 14 99 9 235 27 289 37 64 12 105 53 97 96 -3 17 2 36 15 54 12 16 21 35 21
44 0 9 18 38 41 65 39 47 59 102 76 218 7 43 -19 72 -62 72 -42 0 -48 8 -27
39 23 33 42 78 42 96 0 8 11 31 25 51 27 40 33 100 13 137 -8 14 -11 65 -10
142 1 70 -3 131 -9 148 -10 24 -66 62 -93 62 -5 0 -9 29 -7 65 l2 65 -113 116
c-131 136 -166 159 -248 166 -33 3 -60 9 -60 14 0 4 -9 11 -20 14 -11 3 -20
11 -20 16 0 5 -21 36 -47 69 -27 32 -61 77 -78 100 -16 23 -50 58 -75 77 -25
19 -52 48 -60 64 -28 53 -99 117 -148 133 -73 25 -174 32 -211 13 -28 -14 -32
-14 -55 4 -63 49 -161 61 -273 34z"/>
</g>
</svg>
